<?xml version="1.0" encoding="UTF-8"?>
<svg width="700pt" height="700pt" version="1.1" viewBox="0 0 700 700" xmlns="http://www.w3.org/2000/svg" xmlns:xlink="http://www.w3.org/1999/xlink">
 <g>
  <path d="m120.91 25.375v-16.812c0-4.8008 3.793-8.5625 8.4727-8.5625h93.355c4.6758 0 8.4727 3.8359 8.4727 8.5625v16.812c0 4.8008-3.793 8.5625-8.4727 8.5625h-93.355c-4.6758 0-8.4727-3.832-8.4727-8.5625zm-25.457 135.76v-16.812c0-4.8008 3.8086-8.5625 8.5078-8.5625h84.805c4.6406 0 8.5078 3.8359 8.5078 8.5625v16.812c0 4.8008-3.8086 8.5625-8.5078 8.5625h-84.805c-4.6406 0-8.5078-3.832-8.5078-8.5625zm-33.938-67.879v-16.812c0-4.8008 3.7812-8.5625 8.4453-8.5625h195.23c4.582 0 8.4453 3.8359 8.4453 8.5625v16.812c0 4.8008-3.7812 8.5625-8.4453 8.5625h-195.23c-4.582 0-8.4453-3.832-8.4453-8.5625zm347.88 76.441c-32.805 0-59.395-26.59-59.395-59.391 0-32.805 26.59-59.395 59.395-59.395 5.0977 0 10.043 0.64062 14.762 1.8477 12.656-30.949 43.066-52.758 78.57-52.758 46.859 0 84.848 37.988 84.848 84.848 0 0.28516 0 0.56641-0.003907 0.85156 2.7422-0.55859 5.582-0.85156 8.4922-0.85156 23.43 0 42.422 18.996 42.422 42.426 0 23.43-18.992 42.422-42.422 42.422zm-339.39 356.37h96.812c-32.105-14.758-54.395-47.203-54.395-84.852 0-51.547 41.785-93.332 93.332-93.332 13.531 0 26.395 2.8789 38 8.0625l34.734-43.422-11.379-32.52h-18.891c-4.7148 0-8.5273-3.8359-8.5273-8.5625v-16.812c0-4.8008 3.7812-8.5625 8.4492-8.5625h67.957c4.5781 0 8.4453 3.832 8.4453 8.5625v16.812c0 4.8008-3.8008 8.5625-8.4883 8.5625h-12.988l5.9375 16.969h125.84v-4.2344c0-25.77 20.918-46.672 46.668-46.672 25.77 0 46.668 20.887 46.668 46.645v12.719c0 4.7188-3.8359 8.5117-8.5664 8.5117h-16.809c-4.8047 0-8.5664-3.8086-8.5664-8.5117v-12.719c0-7.0117-5.6992-12.707-12.727-12.707-7.0078 0-12.727 5.7148-12.727 12.734v58.656c8.0898-2.2891 16.629-3.5117 25.453-3.5117 51.547 0 93.332 41.785 93.332 93.332 0 37.648-22.289 70.094-54.395 84.852h96.812c4.6562 0 8.4922 3.832 8.4922 8.5625v16.812c0 4.8008-3.8008 8.5625-8.4922 8.5625h-559.98c-4.6562 0-8.4922-3.8359-8.4922-8.5625v-16.812c0-4.8008 3.8008-8.5625 8.4922-8.5625zm330.9-84.852c0-28.98 13.211-54.879 33.938-72v-17.5l-79.984 99.98c-3.9297 4.6836-8.8633 6.6094-13.711 6.4922h-43.602c-5.5547 30.246-25.695 55.391-52.855 67.879h210.61c-32.105-14.758-54.395-47.203-54.395-84.852zm-83.312-16.969-25.875-73.926-19.941 24.926c13.078 13.09 22.289 30.043 25.77 49zm90.43-93.332h-87.141l26.523 75.77zm26.82 110.3c0 32.805 26.594 59.395 59.395 59.395 32.801 0 59.395-26.59 59.395-59.395 0-32.801-26.594-59.395-59.395-59.395-5.2578 0-10.352 0.68359-15.207 1.9648l33.359 49.863c2.6445 3.9531 1.4727 9.0898-2.5391 11.598l-14.258 8.9102c-4.0703 2.543-9.3633 1.3828-11.957-2.5078l-33.488-50.23c-9.5117 10.531-15.305 24.488-15.305 39.797zm-229.09-59.395c-32.801 0-59.395 26.594-59.395 59.395 0 32.805 26.594 59.395 59.395 59.395 26.906 0 49.633-17.891 56.934-42.422h-65.418c-14.23 0-22.141-16.461-13.25-27.574l37.367-46.711c-4.9805-1.3555-10.223-2.082-15.633-2.082zm56.934 42.426c-2.4766-8.3242-6.7305-15.883-12.32-22.238l-17.789 22.238z"/>
  <use x="61.515625" y="687.273438" xlink:href="#s"/>
  <use x="92.648438" y="687.273438" xlink:href="#c"/>
  <use x="113.570312" y="687.273438" xlink:href="#b"/>
  <use x="142.34375" y="687.273438" xlink:href="#e"/>
  <use x="170.972656" y="687.273438" xlink:href="#a"/>
  <use x="191.253906" y="687.273438" xlink:href="#b"/>
  <use x="220.027344" y="687.273438" xlink:href="#d"/>
  <use x="265.164062" y="687.273438" xlink:href="#i"/>
  <use x="295.53125" y="687.273438" xlink:href="#h"/>
  <use x="337.957031" y="687.273438" xlink:href="#g"/>
  <use x="370.789062" y="687.273438" xlink:href="#r"/>
  <use x="400.992188" y="687.273438" xlink:href="#d"/>
  <use x="431.359375" y="687.273438" xlink:href="#c"/>
  <use x="452.28125" y="687.273438" xlink:href="#b"/>
  <use x="481.054688" y="687.273438" xlink:href="#f"/>
  <use x="495.597656" y="687.273438" xlink:href="#q"/>
  <use x="535.617188" y="687.273438" xlink:href="#p"/>
  <use x="568.492188" y="687.273438" xlink:href="#o"/>
  <use x="583.035156" y="687.273438" xlink:href="#c"/>
  <use x="603.957031" y="687.273438" xlink:href="#n"/>
  <use x="648.164063" y="687.273438" xlink:href="#e"/>
  <use x="61.515625" y="729.695312" xlink:href="#m"/>
  <use x="189.015625" y="729.695312" xlink:href="#a"/>
  <use x="209.296875" y="729.695312" xlink:href="#l"/>
  <use x="283.039062" y="729.695312" xlink:href="#k"/>
  <use x="422.867188" y="729.695312" xlink:href="#j"/>
  <use x="504.027344" y="729.695312" xlink:href="#f"/>
  <use x="572.492188" y="729.695312" xlink:href="#a"/>
 </g>
</svg>
